<mxfile host="app.diagrams.net" modified="2023-05-31T16:22:36.969Z" agent="Mozilla/5.0 (Windows NT 10.0; Win64; x64) AppleWebKit/537.36 (KHTML, like Gecko) Chrome/113.0.0.0 Safari/537.36" etag="4-Zu2pz7xtV3rCoEu-SY" version="21.2.2" type="device">
  <diagram id="C5RBs43oDa-KdzZeNtuy" name="Page-1">
    <mxGraphModel dx="1434" dy="1925" grid="1" gridSize="10" guides="1" tooltips="1" connect="1" arrows="1" fold="1" page="1" pageScale="1" pageWidth="827" pageHeight="1169" math="0" shadow="0">
      <root>
        <mxCell id="WIyWlLk6GJQsqaUBKTNV-0" />
        <mxCell id="WIyWlLk6GJQsqaUBKTNV-1" parent="WIyWlLk6GJQsqaUBKTNV-0" />
        <mxCell id="JjqVr0-R0mk3wwgAAgco-20" style="rounded=0;orthogonalLoop=1;jettySize=auto;html=1;entryX=0;entryY=0.5;entryDx=0;entryDy=0;endArrow=none;endFill=0;" edge="1" parent="WIyWlLk6GJQsqaUBKTNV-1" source="JjqVr0-R0mk3wwgAAgco-0" target="JjqVr0-R0mk3wwgAAgco-1">
          <mxGeometry relative="1" as="geometry" />
        </mxCell>
        <mxCell id="JjqVr0-R0mk3wwgAAgco-21" style="rounded=0;orthogonalLoop=1;jettySize=auto;html=1;entryX=0;entryY=0.5;entryDx=0;entryDy=0;endArrow=none;endFill=0;" edge="1" parent="WIyWlLk6GJQsqaUBKTNV-1" source="JjqVr0-R0mk3wwgAAgco-0" target="JjqVr0-R0mk3wwgAAgco-16">
          <mxGeometry relative="1" as="geometry" />
        </mxCell>
        <mxCell id="JjqVr0-R0mk3wwgAAgco-0" value="Cliente" style="shape=umlActor;verticalLabelPosition=bottom;verticalAlign=top;html=1;outlineConnect=0;" vertex="1" parent="WIyWlLk6GJQsqaUBKTNV-1">
          <mxGeometry x="70" y="190" width="30" height="60" as="geometry" />
        </mxCell>
        <mxCell id="JjqVr0-R0mk3wwgAAgco-3" style="rounded=0;orthogonalLoop=1;jettySize=auto;html=1;dashed=1;" edge="1" parent="WIyWlLk6GJQsqaUBKTNV-1" source="JjqVr0-R0mk3wwgAAgco-1" target="JjqVr0-R0mk3wwgAAgco-2">
          <mxGeometry relative="1" as="geometry" />
        </mxCell>
        <mxCell id="JjqVr0-R0mk3wwgAAgco-7" style="rounded=0;orthogonalLoop=1;jettySize=auto;html=1;entryX=0.342;entryY=1.013;entryDx=0;entryDy=0;entryPerimeter=0;dashed=1;" edge="1" parent="WIyWlLk6GJQsqaUBKTNV-1" source="JjqVr0-R0mk3wwgAAgco-1" target="JjqVr0-R0mk3wwgAAgco-4">
          <mxGeometry relative="1" as="geometry" />
        </mxCell>
        <mxCell id="JjqVr0-R0mk3wwgAAgco-17" style="rounded=0;orthogonalLoop=1;jettySize=auto;html=1;entryX=0.5;entryY=0;entryDx=0;entryDy=0;dashed=1;endArrow=none;endFill=0;startArrow=classic;startFill=1;" edge="1" parent="WIyWlLk6GJQsqaUBKTNV-1" source="JjqVr0-R0mk3wwgAAgco-1" target="JjqVr0-R0mk3wwgAAgco-16">
          <mxGeometry relative="1" as="geometry" />
        </mxCell>
        <mxCell id="JjqVr0-R0mk3wwgAAgco-1" value="alquilar" style="ellipse;whiteSpace=wrap;html=1;" vertex="1" parent="WIyWlLk6GJQsqaUBKTNV-1">
          <mxGeometry x="200" y="190" width="120" height="80" as="geometry" />
        </mxCell>
        <mxCell id="JjqVr0-R0mk3wwgAAgco-2" value="Cumple&lt;br&gt;requisitos" style="ellipse;whiteSpace=wrap;html=1;" vertex="1" parent="WIyWlLk6GJQsqaUBKTNV-1">
          <mxGeometry x="200" y="60" width="120" height="80" as="geometry" />
        </mxCell>
        <mxCell id="JjqVr0-R0mk3wwgAAgco-4" value="Comprobar&lt;br&gt;disponibilidad&lt;br&gt;inmueble" style="ellipse;whiteSpace=wrap;html=1;" vertex="1" parent="WIyWlLk6GJQsqaUBKTNV-1">
          <mxGeometry x="360" y="70" width="120" height="80" as="geometry" />
        </mxCell>
        <mxCell id="JjqVr0-R0mk3wwgAAgco-8" value="&amp;lt;&amp;lt;include&amp;gt;&amp;gt;" style="text;html=1;align=center;verticalAlign=middle;resizable=0;points=[];autosize=1;strokeColor=none;fillColor=none;" vertex="1" parent="WIyWlLk6GJQsqaUBKTNV-1">
          <mxGeometry x="340" y="180" width="90" height="30" as="geometry" />
        </mxCell>
        <mxCell id="JjqVr0-R0mk3wwgAAgco-9" value="&amp;lt;&amp;lt;include&amp;gt;&amp;gt;" style="text;html=1;align=center;verticalAlign=middle;resizable=0;points=[];autosize=1;strokeColor=none;fillColor=none;" vertex="1" parent="WIyWlLk6GJQsqaUBKTNV-1">
          <mxGeometry x="180" y="150" width="90" height="30" as="geometry" />
        </mxCell>
        <mxCell id="JjqVr0-R0mk3wwgAAgco-15" style="rounded=0;orthogonalLoop=1;jettySize=auto;html=1;entryX=1;entryY=0.5;entryDx=0;entryDy=0;endArrow=none;endFill=0;" edge="1" parent="WIyWlLk6GJQsqaUBKTNV-1" source="JjqVr0-R0mk3wwgAAgco-10" target="JjqVr0-R0mk3wwgAAgco-14">
          <mxGeometry relative="1" as="geometry" />
        </mxCell>
        <mxCell id="JjqVr0-R0mk3wwgAAgco-10" value="Gestor" style="shape=umlActor;verticalLabelPosition=bottom;verticalAlign=top;html=1;outlineConnect=0;" vertex="1" parent="WIyWlLk6GJQsqaUBKTNV-1">
          <mxGeometry x="630" y="485" width="30" height="60" as="geometry" />
        </mxCell>
        <mxCell id="JjqVr0-R0mk3wwgAAgco-14" value="crud" style="ellipse;whiteSpace=wrap;html=1;" vertex="1" parent="WIyWlLk6GJQsqaUBKTNV-1">
          <mxGeometry x="430" y="440" width="140" height="70" as="geometry" />
        </mxCell>
        <mxCell id="JjqVr0-R0mk3wwgAAgco-16" value="desalquilar" style="ellipse;whiteSpace=wrap;html=1;" vertex="1" parent="WIyWlLk6GJQsqaUBKTNV-1">
          <mxGeometry x="200" y="320" width="120" height="80" as="geometry" />
        </mxCell>
        <mxCell id="JjqVr0-R0mk3wwgAAgco-23" style="edgeStyle=orthogonalEdgeStyle;rounded=0;orthogonalLoop=1;jettySize=auto;html=1;dashed=1;" edge="1" parent="WIyWlLk6GJQsqaUBKTNV-1" source="JjqVr0-R0mk3wwgAAgco-19" target="JjqVr0-R0mk3wwgAAgco-22">
          <mxGeometry relative="1" as="geometry" />
        </mxCell>
        <mxCell id="JjqVr0-R0mk3wwgAAgco-19" value="consultar/borrar/mod" style="ellipse;whiteSpace=wrap;html=1;" vertex="1" parent="WIyWlLk6GJQsqaUBKTNV-1">
          <mxGeometry x="430" y="545" width="140" height="70" as="geometry" />
        </mxCell>
        <mxCell id="JjqVr0-R0mk3wwgAAgco-22" value="dar de alta" style="ellipse;whiteSpace=wrap;html=1;" vertex="1" parent="WIyWlLk6GJQsqaUBKTNV-1">
          <mxGeometry x="220" y="545" width="140" height="70" as="geometry" />
        </mxCell>
        <mxCell id="JjqVr0-R0mk3wwgAAgco-24" value="&amp;lt;&amp;lt;include&amp;gt;&amp;gt;" style="text;html=1;align=center;verticalAlign=middle;resizable=0;points=[];autosize=1;strokeColor=none;fillColor=none;" vertex="1" parent="WIyWlLk6GJQsqaUBKTNV-1">
          <mxGeometry x="350" y="555" width="90" height="30" as="geometry" />
        </mxCell>
        <mxCell id="JjqVr0-R0mk3wwgAAgco-25" style="rounded=0;orthogonalLoop=1;jettySize=auto;html=1;entryX=1;entryY=0.5;entryDx=0;entryDy=0;endArrow=none;endFill=0;" edge="1" parent="WIyWlLk6GJQsqaUBKTNV-1" source="JjqVr0-R0mk3wwgAAgco-10" target="JjqVr0-R0mk3wwgAAgco-19">
          <mxGeometry relative="1" as="geometry">
            <mxPoint x="640" y="517" as="sourcePoint" />
            <mxPoint x="580" y="485" as="targetPoint" />
          </mxGeometry>
        </mxCell>
        <mxCell id="JjqVr0-R0mk3wwgAAgco-26" style="rounded=0;orthogonalLoop=1;jettySize=auto;html=1;endArrow=none;endFill=0;exitX=0.5;exitY=0;exitDx=0;exitDy=0;exitPerimeter=0;" edge="1" parent="WIyWlLk6GJQsqaUBKTNV-1" source="JjqVr0-R0mk3wwgAAgco-0">
          <mxGeometry relative="1" as="geometry">
            <mxPoint x="110" y="231" as="sourcePoint" />
            <mxPoint x="90" y="110" as="targetPoint" />
          </mxGeometry>
        </mxCell>
        <mxCell id="JjqVr0-R0mk3wwgAAgco-29" style="rounded=0;orthogonalLoop=1;jettySize=auto;html=1;dashed=1;" edge="1" parent="WIyWlLk6GJQsqaUBKTNV-1" source="JjqVr0-R0mk3wwgAAgco-27" target="JjqVr0-R0mk3wwgAAgco-28">
          <mxGeometry relative="1" as="geometry" />
        </mxCell>
        <mxCell id="JjqVr0-R0mk3wwgAAgco-27" value="mod/consultar&lt;br&gt;datos" style="ellipse;whiteSpace=wrap;html=1;" vertex="1" parent="WIyWlLk6GJQsqaUBKTNV-1">
          <mxGeometry x="40" y="30" width="120" height="80" as="geometry" />
        </mxCell>
        <mxCell id="JjqVr0-R0mk3wwgAAgco-28" value="identificarse" style="ellipse;whiteSpace=wrap;html=1;" vertex="1" parent="WIyWlLk6GJQsqaUBKTNV-1">
          <mxGeometry x="50" y="-133" width="120" height="80" as="geometry" />
        </mxCell>
        <mxCell id="JjqVr0-R0mk3wwgAAgco-30" value="&amp;lt;&amp;lt;include&amp;gt;&amp;gt;" style="text;html=1;align=center;verticalAlign=middle;resizable=0;points=[];autosize=1;strokeColor=none;fillColor=none;" vertex="1" parent="WIyWlLk6GJQsqaUBKTNV-1">
          <mxGeometry x="110" y="-20" width="90" height="30" as="geometry" />
        </mxCell>
        <mxCell id="JjqVr0-R0mk3wwgAAgco-31" value="&amp;lt;&amp;lt;include&amp;gt;&amp;gt;" style="text;html=1;align=center;verticalAlign=middle;resizable=0;points=[];autosize=1;strokeColor=none;fillColor=none;" vertex="1" parent="WIyWlLk6GJQsqaUBKTNV-1">
          <mxGeometry x="250" y="280" width="90" height="30" as="geometry" />
        </mxCell>
      </root>
    </mxGraphModel>
  </diagram>
</mxfile>
